<?xml version="1.0" encoding="UTF-8"?><svg id="Layer_2" xmlns="http://www.w3.org/2000/svg"
  xmlns:xlink="http://www.w3.org/1999/xlink" viewBox="0 0 250.62 194.39">
  <defs>
    <style>
      .cls-1 {
        clip-path: url(#clippath);
      }

      .cls-2 {
        opacity: .1;
      }

      .cls-3 {
        stroke: #686868;
        stroke-width: 1.22px;
      }

      .cls-3,
      .cls-4,
      .cls-5,
      .cls-6,
      .cls-7,
      .cls-8 {
        fill: #bcbcbc;
      }

      .cls-3,
      .cls-9,
      .cls-5,
      .cls-6,
      .cls-7 {
        stroke-miterlimit: 10;
      }

      .cls-10 {
        fill: #fcfcfc;
      }

      .cls-11,
      .cls-12 {
        fill: #fff;
      }

      .cls-13 {
        fill: #939393;
      }

      .cls-14 {
        fill: #d3d3d3;
      }

      .cls-15 {
        fill: #212121;
      }

      .cls-16 {
        fill: #32fc45;
      }

      .cls-17 {
        fill: #828282;
      }

      .cls-18,
      .cls-19,
      .cls-20 {
        fill: #282828;
      }

      .cls-9 {
        fill: #cacbcc;
        stroke: #6d6d6d;
        stroke-width: .5px;
      }

      .cls-5 {
        stroke: #e0e0e0;
      }

      .cls-6 {
        stroke: #282828;
      }

      .cls-7 {
        stroke: #828282;
      }

      .cls-21 {
        opacity: .16;
      }

      .cls-19,
      .cls-8 {
        fill-rule: evenodd;
      }

      .cls-20 {
        opacity: .51;
      }

      .cls-12 {
        opacity: .46;
      }

      @media (prefers-color-scheme: dark) {
        #edge path,
        #by-sighup path,
        #by-sighup rect,
        #by-sighup polygon {
          fill: white;
        }
      }

      @media (prefers-color-scheme: light) {
        #edge path,
        #by-sighup path,
        #by-sighup rect,
        #by-sighup polygon {
          fill: black;
        }
      }
    </style>
    <clipPath id="clippath">
      <polygon class="cls-4" points="12.97 126.27 140.15 13.41 150.38 23.64 37.52 150.82 12.97 126.27" />
    </clipPath>
  </defs>
  <g id="swiss_knife">
    <g id="art">
      <g id="edge">
        <path class="cls-11"
          d="M198.34,2.77s14.36,5.06,11.62,28.35l-3.48,29.53,33.95,57.54c5.05,4.84,8.2,11.64,8.2,19.19,0,2.05-.24,4.04-.68,5.96h0s-.04,.15-.1,.39c-.15,.61-.32,1.22-.52,1.82-.25,.8-.56,1.69-.9,2.4h0c-4.09,9.42-13.47,16.01-24.39,16.01H28.58c-14.69,0-26.58-11.9-26.58-26.58,0-8.4,3.9-15.89,9.99-20.76L76.29,5.24s25.47,20.11,10.65,49.33L138.72,8.63c.26-.23,.59-.35,.92-.35,.36,0,.71,.14,.98,.41l1.33,1.33c.27,.27,.63,.41,.98,.41,.29,0,.59-.09,.84-.28l.61-.46c.25-.19,.54-.28,.84-.28,.36,0,.71,.14,.98,.41l7.72,7.72c.48,.48,.54,1.23,.16,1.78l-.5,.71c-.39,.55-.32,1.3,.16,1.78l1.36,1.36c.52,.52,.55,1.36,.06,1.91L79.09,110.79h99.27l-36-15.01-7.66-10.15,.36-.87,.36-.87,12.6-1.71c12.42,4.82,25.58,10.23,38.37,15.61l.25-1.63,.21,.09,3.97-32.27-11.97-20.59-2.63-4.51c-4.08-6.98-5.42-12.79-5.43-17.41,0-.37,0-.72,.02-1.07,0-.04,0-.08,0-.12,.37-8.03,4.76-12.1,4.76-12.1l.39,.73,17.9,30.34,4.09-33.26,.21-1.79,.12-1.47s.02,0,.05,.02v-.02m-4.51,36.82v-.02s-17.82-30.55-17.82-30.55l.23,.43,17.59,30.13m23.87,40.72l-4.24-7.09-6.31-10.82-.73-1.26h0s.72,1.25,.72,1.25l6.32,10.82,4.25,7.1m-16.09,23.94l4.24-1.37,.07-.02c.06,0,1.41,.06,1.46,.06,6.22,2.68,12.43,5.37,18.6,8.16h0c1.19,.18,2.34,.44,3.47,.77l-16.42-26.98c-1.56-2.69-6.64-3.58-6.64-3.58-1.46-.28-3.05-1.23-4.53-2.35-.8,1.29-1.72,2.45-2.74,3.15,0,0-4.31,2.84-4.67,5.93l-1.51,10.88,.73,.31-.22,1.58c2.74,1.16,5.47,2.32,8.14,3.46M196.5,0l-.21,2.61-.11,1.43-.21,1.75-3.37,27.41-14.89-25.24-.37-.69-1.22-2.29-1.91,1.77c-.2,.19-4.99,4.73-5.4,13.48,0,.03,0,.08,0,.12-.02,.38-.03,.77-.02,1.17,.02,5.75,1.94,11.94,5.71,18.41l2.63,4.51,11.63,20-3.56,28.96-.14-.06-.25,1.65c-13.86-5.81-25.68-10.61-36.06-14.64l-.48-.19-.51,.07-12.6,1.71-1.14,.15-.44,1.06-.36,.87-.36,.87-.44,1.06,.69,.92,7.66,10.15,.33,.43,.5,.21,26.77,11.16H83.54L156.65,26.39c1.19-1.34,1.13-3.38-.14-4.65l-1-1,.2-.29c.95-1.35,.79-3.18-.38-4.34l-7.72-7.72c-.64-.64-1.49-.99-2.4-.99-.74,0-1.45,.24-2.04,.68l-.19,.14-.96-.96c-.64-.64-1.49-.99-2.4-.99-.83,0-1.63,.3-2.25,.86l-45.46,40.34c3.61-12.31,.61-22.56-2.98-29.45-4.66-8.96-11.15-14.14-11.42-14.35l-1.81-1.43-1.16,2L10.44,115.29c-6.64,5.46-10.44,13.48-10.44,22.08,0,15.76,12.82,28.58,28.58,28.58H222.04c11.35,0,21.61-6.71,26.18-17.1l.02-.05c.33-.7,.67-1.6,1.01-2.67,.2-.62,.39-1.28,.55-1.94,.06-.25,.1-.41,.1-.41l.58-2.46h-.13c.19-1.32,.28-2.64,.28-3.96,0-7.77-3.06-15.01-8.61-20.44l-33.47-56.72,3.4-28.86c2.9-24.6-12.29-30.24-12.94-30.47l-2.36-.83-.14-.05h0Zm-1.35,97.66l1.3-9.37c.2-1.66,2.64-3.77,3.79-4.53,.74-.51,1.45-1.18,2.13-2.04,1.31,.81,2.52,1.32,3.65,1.54,1.4,.25,4.48,1.21,5.3,2.62l13.76,22.6c-5.91-2.65-11.82-5.21-16.9-7.39l-.33-.14-.36-.02s-.3-.01-.61-.02c-.37-.02-.79-.03-.85-.03l-.36-.02-.35,.11-.07,.02-3.53,1.14c-2-.85-4.01-1.71-6.05-2.57v-.07s.22-1.51,.22-1.51l-.73-.31h0Z" />
      </g>
      <g>
        <g>
          <path class="cls-4"
            d="M155.1,23.16l-1.36-1.36c-.48-.48-.54-1.23-.16-1.78l.5-.71c.39-.55,.32-1.3-.16-1.78l-7.72-7.72c-.49-.49-1.27-.54-1.82-.13l-.61,.46c-.55,.42-1.33,.36-1.82-.13l-1.33-1.33c-.52-.52-1.36-.55-1.91-.06L8.15,124.49c-.6,.53-.63,1.46-.06,2.02l29.18,29.18c.57,.57,1.49,.54,2.02-.06L155.16,25.07c.49-.55,.46-1.39-.06-1.91Z" />
          <polygon class="cls-13" points="12.99 126.25 140.17 13.39 150.4 23.62 37.54 150.8 12.99 126.25" />
          <polygon class="cls-16" points="12.97 126.27 140.15 13.41 150.38 23.64 37.52 150.82 12.97 126.27" />
          <g>
            <polygon class="cls-4" points="12.97 126.27 140.15 13.41 150.38 23.64 37.52 150.82 12.97 126.27" />
            <g class="cls-1">
              <g>
                <line class="cls-3" x1="151.08" y1="-3.73" x2="151.08" y2="29.14" />
                <line class="cls-3" x1="148.31" y1="-1.14" x2="148.31" y2="32.1" />
                <line class="cls-3" x1="145.53" y1="1.44" x2="145.53" y2="35.06" />
                <line class="cls-3" x1="142.76" y1="4.03" x2="142.76" y2="38.02" />
                <line class="cls-3" x1="139.99" y1="6.62" x2="139.99" y2="40.98" />
                <line class="cls-3" x1="137.22" y1="9.2" x2="137.22" y2="43.93" />
                <line class="cls-3" x1="134.45" y1="11.79" x2="134.45" y2="46.89" />
                <line class="cls-3" x1="131.67" y1="14.37" x2="131.67" y2="49.85" />
                <line class="cls-3" x1="128.9" y1="16.96" x2="128.9" y2="52.81" />
                <line class="cls-3" x1="126.13" y1="19.54" x2="126.13" y2="55.77" />
                <line class="cls-3" x1="123.36" y1="22.13" x2="123.36" y2="58.73" />
                <line class="cls-3" x1="120.59" y1="24.71" x2="120.59" y2="61.68" />
                <line class="cls-3" x1="117.81" y1="27.3" x2="117.81" y2="64.64" />
                <line class="cls-3" x1="115.04" y1="29.88" x2="115.04" y2="67.6" />
                <line class="cls-3" x1="112.27" y1="32.47" x2="112.27" y2="70.56" />
                <line class="cls-3" x1="109.5" y1="35.06" x2="109.5" y2="73.52" />
                <line class="cls-3" x1="106.73" y1="37.64" x2="106.73" y2="76.48" />
                <line class="cls-3" x1="103.95" y1="40.23" x2="103.95" y2="79.43" />
                <line class="cls-3" x1="101.18" y1="42.81" x2="101.18" y2="82.39" />
                <line class="cls-3" x1="98.41" y1="45.4" x2="98.41" y2="85.35" />
                <line class="cls-3" x1="95.64" y1="47.98" x2="95.64" y2="88.31" />
                <line class="cls-3" x1="92.87" y1="50.57" x2="92.87" y2="91.27" />
                <line class="cls-3" x1="90.1" y1="53.15" x2="90.1" y2="94.23" />
                <line class="cls-3" x1="87.32" y1="55.74" x2="87.32" y2="97.18" />
                <line class="cls-3" x1="84.55" y1="58.33" x2="84.55" y2="100.14" />
                <line class="cls-3" x1="81.78" y1="60.91" x2="81.78" y2="103.1" />
                <line class="cls-3" x1="79.01" y1="63.5" x2="79.01" y2="106.06" />
                <line class="cls-3" x1="76.24" y1="66.08" x2="76.24" y2="109.02" />
                <line class="cls-3" x1="73.46" y1="68.67" x2="73.46" y2="111.97" />
                <line class="cls-3" x1="70.69" y1="71.25" x2="70.69" y2="114.93" />
                <line class="cls-3" x1="67.92" y1="73.84" x2="67.92" y2="117.89" />
                <line class="cls-3" x1="65.15" y1="76.42" x2="65.15" y2="120.85" />
                <line class="cls-3" x1="62.38" y1="79.01" x2="62.38" y2="123.81" />
                <line class="cls-3" x1="59.6" y1="81.59" x2="59.6" y2="126.77" />
                <line class="cls-3" x1="56.83" y1="84.18" x2="56.83" y2="129.72" />
                <line class="cls-3" x1="54.06" y1="86.77" x2="54.06" y2="132.68" />
                <line class="cls-3" x1="51.29" y1="89.35" x2="51.29" y2="135.64" />
                <line class="cls-3" x1="48.52" y1="91.94" x2="48.52" y2="138.6" />
                <line class="cls-3" x1="45.74" y1="94.52" x2="45.74" y2="141.56" />
                <line class="cls-3" x1="42.97" y1="97.11" x2="42.97" y2="144.52" />
                <line class="cls-3" x1="40.2" y1="99.69" x2="40.2" y2="147.47" />
                <line class="cls-3" x1="37.43" y1="102.28" x2="37.43" y2="150.43" />
                <line class="cls-3" x1="34.66" y1="104.86" x2="34.66" y2="153.39" />
                <line class="cls-3" x1="31.89" y1="107.45" x2="31.89" y2="156.35" />
                <line class="cls-3" x1="29.11" y1="110.04" x2="29.11" y2="159.31" />
                <line class="cls-3" x1="26.34" y1="112.62" x2="26.34" y2="162.27" />
                <line class="cls-3" x1="23.57" y1="115.21" x2="23.57" y2="165.22" />
                <line class="cls-3" x1="20.8" y1="117.79" x2="20.8" y2="168.18" />
                <line class="cls-3" x1="18.03" y1="120.38" x2="18.03" y2="171.14" />
                <line class="cls-3" x1="15.25" y1="122.96" x2="15.25" y2="174.1" />
                <line class="cls-3" x1="12.48" y1="125.55" x2="12.48" y2="177.06" />
              </g>
              <g>
                <line class="cls-3" x1="163.9" y1="16.32" x2="131.03" y2="16.32" />
                <line class="cls-3" x1="161.31" y1="19.09" x2="128.07" y2="19.09" />
                <line class="cls-3" x1="158.73" y1="21.87" x2="125.11" y2="21.87" />
                <line class="cls-3" x1="156.14" y1="24.64" x2="122.15" y2="24.64" />
                <line class="cls-3" x1="153.56" y1="27.41" x2="119.19" y2="27.41" />
                <line class="cls-3" x1="150.97" y1="30.18" x2="116.24" y2="30.18" />
                <line class="cls-3" x1="148.38" y1="32.95" x2="113.28" y2="32.95" />
                <line class="cls-3" x1="145.8" y1="35.73" x2="110.32" y2="35.73" />
                <line class="cls-3" x1="143.21" y1="38.5" x2="107.36" y2="38.5" />
                <line class="cls-3" x1="140.63" y1="41.27" x2="104.4" y2="41.27" />
                <line class="cls-3" x1="138.04" y1="44.04" x2="101.45" y2="44.04" />
                <line class="cls-3" x1="135.46" y1="46.81" x2="98.49" y2="46.81" />
                <line class="cls-3" x1="132.87" y1="49.59" x2="95.53" y2="49.59" />
                <line class="cls-3" x1="130.29" y1="52.36" x2="92.57" y2="52.36" />
                <line class="cls-3" x1="127.7" y1="55.13" x2="89.61" y2="55.13" />
                <line class="cls-3" x1="125.11" y1="57.9" x2="86.65" y2="57.9" />
                <line class="cls-3" x1="122.53" y1="60.67" x2="83.7" y2="60.67" />
                <line class="cls-3" x1="119.94" y1="63.44" x2="80.74" y2="63.44" />
                <line class="cls-3" x1="117.36" y1="66.22" x2="77.78" y2="66.22" />
                <line class="cls-3" x1="114.77" y1="68.99" x2="74.82" y2="68.99" />
                <line class="cls-3" x1="112.19" y1="71.76" x2="71.86" y2="71.76" />
                <line class="cls-3" x1="109.6" y1="74.53" x2="68.9" y2="74.53" />
                <line class="cls-3" x1="107.02" y1="77.3" x2="65.95" y2="77.3" />
                <line class="cls-3" x1="104.43" y1="80.08" x2="62.99" y2="80.08" />
                <line class="cls-3" x1="101.85" y1="82.85" x2="60.03" y2="82.85" />
                <line class="cls-3" x1="99.26" y1="85.62" x2="57.07" y2="85.62" />
                <line class="cls-3" x1="96.67" y1="88.39" x2="54.11" y2="88.39" />
                <line class="cls-3" x1="94.09" y1="91.16" x2="51.15" y2="91.16" />
                <line class="cls-3" x1="91.5" y1="93.94" x2="48.2" y2="93.94" />
                <line class="cls-3" x1="88.92" y1="96.71" x2="45.24" y2="96.71" />
                <line class="cls-3" x1="86.33" y1="99.48" x2="42.28" y2="99.48" />
                <line class="cls-3" x1="83.75" y1="102.25" x2="39.32" y2="102.25" />
                <line class="cls-3" x1="81.16" y1="105.02" x2="36.36" y2="105.02" />
                <line class="cls-3" x1="78.58" y1="107.8" x2="33.4" y2="107.8" />
                <line class="cls-3" x1="75.99" y1="110.57" x2="30.45" y2="110.57" />
                <line class="cls-3" x1="73.4" y1="113.34" x2="27.49" y2="113.34" />
                <line class="cls-3" x1="70.82" y1="116.11" x2="24.53" y2="116.11" />
                <line class="cls-3" x1="68.23" y1="118.88" x2="21.57" y2="118.88" />
                <line class="cls-3" x1="65.65" y1="121.65" x2="18.61" y2="121.65" />
                <line class="cls-3" x1="63.06" y1="124.43" x2="15.65" y2="124.43" />
                <line class="cls-3" x1="60.48" y1="127.2" x2="12.7" y2="127.2" />
                <line class="cls-3" x1="57.89" y1="129.97" x2="9.74" y2="129.97" />
                <line class="cls-3" x1="55.31" y1="132.74" x2="6.78" y2="132.74" />
                <line class="cls-3" x1="52.72" y1="135.51" x2="3.82" y2="135.51" />
                <line class="cls-3" x1="50.14" y1="138.29" x2=".86" y2="138.29" />
                <line class="cls-3" x1="47.55" y1="141.06" x2="-2.1" y2="141.06" />
                <line class="cls-3" x1="44.96" y1="143.83" x2="-5.05" y2="143.83" />
                <line class="cls-3" x1="42.38" y1="146.6" x2="-8.01" y2="146.6" />
                <line class="cls-3" x1="39.79" y1="149.37" x2="-10.97" y2="149.37" />
                <line class="cls-3" x1="37.21" y1="152.15" x2="-13.93" y2="152.15" />
                <line class="cls-3" x1="34.62" y1="154.92" x2="-16.89" y2="154.92" />
              </g>
            </g>
          </g>
        </g>
        <g>
          <line class="cls-4" x1="84.79" y1="56.48" x2="138.72" y2="8.63" />
          <polygon class="cls-18" points="84.13 55.73 138.72 8.63 85.46 57.23 84.13 55.73 84.13 55.73" />
        </g>
        <path class="cls-4"
          d="M244.93,125.81l-31.48-52.59-6.32-10.82-31.59-54.11s-11.15,10.37,.67,30.63l20.4,34.95s5.54,6.62,9.88,7.45c0,0,5.08,.88,6.65,3.57l26.79,43.84,4.99-2.91Z" />
        <g>
          <path class="cls-4"
            d="M175.57,8.21s-11.17,10.35,.62,30.63l20.34,34.99s5.53,6.63,9.86,7.47c0,0,5.08,.89,6.64,3.58l26.72,43.89" />
          <path class="cls-18"
            d="M175.57,8.21c-5.07,5.82-5.3,14.41-2.85,21.41,1.38,4.33,3.71,8.21,6.07,12.13,6.28,10.48,12.45,21.02,18.61,31.57,1.78,1.94,5.02,5.42,8.08,6.66,2.2,.72,4.44,1.03,6.43,2.44,1.3,.73,2.26,2.51,3.01,3.78,0,0,2.3,3.84,2.3,3.84,7.07,11.9,15.78,26.68,22.54,38.71-8.48-12.93-18.23-28.45-26.4-41.62,0,0-1.17-1.88-1.17-1.88-1.65-2.33-4.9-2.58-7.44-3.48-3.62-1.59-6.41-4.47-8.98-7.32-6.19-10.59-12.29-21.25-18.33-31.93-2.25-3.94-4.59-8.13-5.81-12.57-2.25-7.25-1.62-16.16,3.95-21.75h0Z" />
        </g>
        <polyline class="cls-7" points="244.93 125.82 213.46 73.22 207.15 62.4 175.57 8.28" />
        <path class="cls-4"
          d="M181.68,138.23l7.85-60.79,1.47-12.45,7.34-62.23s14.36,5.06,11.62,28.35l-4.74,40.19s-2.44,8.28-6.08,10.78c0,0-4.31,2.84-4.67,5.93l-7.05,50.89-5.74-.68Z" />
        <g>
          <path class="cls-4"
            d="M198.29,2.77s14.36,5.06,11.62,28.35l-4.74,40.19s-2.44,8.28-6.08,10.78c0,0-4.31,2.84-4.67,5.93l-7.05,50.89" />
          <path class="cls-17"
            d="M198.29,2.77c7.34,2.92,11.45,10.84,12.28,18.39,.65,4.57,.16,9.34-.33,13.85-1.29,12.2-2.65,24.41-4.11,36.59-1.22,3.64-2.64,7.39-5.33,10.29-1.97,1.83-4.86,3.36-5.44,6.15,0,0-.33,2.19-.33,2.19-2.25,15.35-5.02,33.43-7.66,48.69,1.6-15.38,3.86-33.55,5.86-48.92,0,0,.3-2.25,.3-2.25,.58-3.35,3.55-5.2,5.88-7.21,2.38-2.62,3.68-6.13,4.8-9.49,1.29-11.22,2.93-24.36,4.47-36.21,.6-4.52,1.2-9.02,.74-13.54-.53-7.4-4.17-15.2-11.13-18.51h0Z" />
        </g>
        <polyline class="cls-5" points="181.68 138.36 189.53 77.57 191 65.13 198.34 2.9" />
        <g>
          <path class="cls-8" d="M7.44,124.5L76.29,5.24s26.95,21.27,9.3,51.85l-48.73,84.4L7.44,124.5Z" />
          <g>
            <path class="cls-8" d="M76.29,5.24s26.95,21.27,9.3,51.85l-48.73,84.4" />
            <path class="cls-14"
              d="M76.29,5.24c16.13,13.68,20.57,34.23,9.6,52.67-6.17,10.97-40.56,72.18-47.47,84.47,0,0-3.12-1.8-3.12-1.8,7.42-12.51,42.83-72.24,49.42-83.35,1.61-2.77,3.07-5.6,4.16-8.61,5.95-15.53-.34-32.78-12.58-43.39h0Z" />
          </g>
          <path class="cls-19" d="M51.79,54.11l15.22-26.36s-1.8,16.23-15.22,26.36Z" />
          <line class="cls-6" x1="76.29" y1="5.24" x2="7.44" y2="124.5" />
        </g>
        <g>
          <rect class="cls-4" x="164.65" y="71.12" width="14.72" height="58.11"
            transform="translate(13.37 220.39) rotate(-67.37)" />
          <rect class="cls-2" x="172.8" y="65.68" width="2.95" height="58.11"
            transform="translate(19.78 219.14) rotate(-67.37)" />
          <rect class="cls-4" x="206.99" y="101.32" width="21.3" height="35.65" rx="2.17" ry="2.17"
            transform="translate(23.93 274.19) rotate(-67.37)" />
          <polygon class="cls-4" points="142.36 95.78 134.7 85.63 135.06 84.77 145.19 88.99 142.36 95.78" />
          <path d="M137.95,87.09l4.09,1.7c.21,.09,.37,.25,.45,.46,.27,.71,.78,2.46,.24,4.5l-5.04-6.53,.26-.14Z" />
          <polygon class="cls-4" points="148.02 82.2 135.42 83.9 135.06 84.77 145.19 88.99 148.02 82.2" />
          <path d="M138.67,85.3l4.09,1.7c.21,.09,.44,.09,.65,0,.69-.31,2.3-1.18,3.37-3l-8.19,1.02,.09,.28Z" />
          <polygon class="cls-4" points="198.02 121.95 195.99 118.14 201.66 104.56 205.83 103.23 198.02 121.95" />
          <path class="cls-2"
            d="M206.4,103.73l-3.16,7.59-3.75-1.56,2.1-5.05c.04-.1,.12-.17,.23-.2l4.16-1.25c.29-.09,.54,.2,.43,.48Z" />
        </g>
        <g id="large">
          <path class="cls-15"
            d="M2,137.37c0,14.68,11.9,26.58,26.58,26.58H222.04c14.68,0,26.58-11.9,26.58-26.58h0c0-14.68-11.9-26.58-26.58-26.58H28.58c-14.69,0-26.58,11.9-26.58,26.58h0Z" />
          <g class="cls-21">
            <path class="cls-11"
              d="M28.58,153.95c-9.14,0-16.58-7.44-16.58-16.58s7.44-16.58,16.58-16.58H222.04c9.14,0,16.58,7.44,16.58,16.58s-7.44,16.58-16.58,16.58H28.58Z" />
          </g>
          <g id="Layer_2-2">
            <g id="ICON">
              <path class="cls-16"
                d="M29.53,137.63l7.15-10.19-2.86-2-7.13,10.19h0c-2.74,3.96-1.75,9.39,2.2,12.13,3.93,2.73,9.32,1.77,12.09-2.14l-2.87-1.99c-1.69,2.35-4.96,2.89-7.3,1.2-2.29-1.66-2.86-4.85-1.27-7.2h0Zm5.72,4.01l5-7.15-2.86-2-5,7.15,2.86,2Z" />
            </g>
          </g>
          <g>
            <path class="cls-16" d="M102.37,147.39v-18.97h13.83v3.88h-9.6v4.5h9.01v3.77h-9.01v6.81h-4.22Z" />
            <path class="cls-16"
              d="M121.03,141.26v-7.27h3.93v7.24c0,2.08,.92,3.13,2.76,3.13,.88,0,1.61-.32,2.19-.97,.57-.64,.86-1.42,.86-2.32v-7.09h3.93v13.43h-3.54l-.17-1.63c-1.02,1.36-2.43,2.04-4.24,2.04-.65,0-1.25-.06-1.78-.17-.54-.12-1.05-.32-1.55-.62-.5-.3-.92-.69-1.26-1.17-.34-.48-.62-1.11-.82-1.89-.2-.78-.3-1.68-.3-2.71Z" />
            <path class="cls-16"
              d="M140.63,147.39v-13.38h3.65l.31,1.48c.85-1.2,2.04-1.79,3.58-1.79,1.25,0,2.35,.41,3.29,1.22l-1.63,3.09c-.6-.45-1.32-.67-2.15-.67-.88,0-1.62,.27-2.22,.82s-.89,1.31-.89,2.28v6.96h-3.93Z" />
            <path class="cls-16"
              d="M154.07,133.99h4.4l3.34,8.44,3.29-8.44h4.3l-8.21,19.43h-4.26l2.77-6.44-5.62-12.99Z" />
            <path class="cls-16"
              d="M173.27,138.01c0-1.01,.12-1.99,.38-2.94s.64-1.86,1.18-2.72,1.2-1.62,1.97-2.27c.77-.65,1.73-1.17,2.86-1.55,1.13-.38,2.38-.58,3.73-.58,2.69,0,5.01,.95,6.97,2.85l-2.66,2.7c-1.09-1.11-2.53-1.67-4.3-1.67-.84,0-1.6,.13-2.29,.38s-1.25,.59-1.7,1c-.45,.42-.83,.9-1.13,1.45-.3,.55-.52,1.11-.66,1.67-.13,.56-.2,1.13-.2,1.71s.06,1.14,.19,1.68c.13,.54,.34,1.08,.64,1.6,.3,.52,.67,.98,1.12,1.37,.45,.39,1.01,.7,1.7,.94,.69,.23,1.46,.35,2.32,.35,.8,0,1.64-.16,2.52-.49,.88-.33,1.59-.77,2.15-1.33l2.63,2.92c-1.86,1.85-4.29,2.78-7.3,2.78-1.41,0-2.69-.18-3.83-.53-1.14-.35-2.1-.83-2.87-1.44-.77-.61-1.41-1.33-1.94-2.18-.52-.84-.9-1.74-1.13-2.69-.23-.95-.35-1.95-.35-3.01Z" />
            <path class="cls-16" d="M194.31,132.17v-3.77h15.73v3.77h-5.76v15.22h-4.23v-15.22h-5.75Z" />
            <path class="cls-16" d="M215.33,147.39v-18.99h4.22v15.11h9.5v3.88h-13.72Z" />
          </g>
          <path class="cls-12" d="M237.51,143.33h10.44s-.67,2.84-1.51,4.61h-11.63s2.05-2.5,2.71-4.61Z" />
        </g>
        <polygon class="cls-20" points="186.34 98.17 193.43 101.12 193.69 99.21 186.65 96.18 186.34 98.17" />
        <path class="cls-18"
          d="M148.02,82.2c17.48,6.79,36.43,14.73,53.74,22.12,0,0-.3-.01-.3-.01l4.39-1.42,.07-.02c.06,0,1.41,.06,1.46,.06,6.22,2.68,12.43,5.37,18.61,8.16-6.31-2.41-12.57-4.92-18.83-7.45l.13,.03-1.33-.02,.13-.02-4.37,1.49c-.17,.06-.14,.06-.3-.01-17.4-7.2-36.31-15.17-53.4-22.91h0Z" />
        <path class="cls-18"
          d="M134.7,85.63c2.47,3.04,5.97,7.21,7.8,9.8,8.98,3.57,18.13,7.39,26.98,11.31,2.98,1.3,5.93,2.66,8.88,4.04-3.06-1.12-6.1-2.26-9.12-3.46-9.02-3.52-18.16-7.34-27.02-11.2-2.63-3.36-5.05-6.98-7.51-10.5h0Z" />
        <circle class="cls-9" cx="198.81" cy="61.94" r="2.81" />
        <circle class="cls-18" cx="198.81" cy="61.94" r="2.18" />
      </g>
      <g id="by-sighup">
        <g>
          <path class="cls-10"
            d="M72.02,189.79v1.14h-.98v-10.9h.98v5.32h.03c.29-.44,.66-.78,1.12-1,.46-.23,.94-.34,1.43-.34,.53,0,1.01,.09,1.43,.27s.79,.43,1.1,.75,.54,.69,.71,1.12c.17,.43,.25,.9,.25,1.4s-.08,.97-.25,1.4-.4,.81-.71,1.12-.67,.57-1.1,.75c-.43,.18-.91,.27-1.43,.27-.49,0-.97-.11-1.43-.33-.46-.22-.84-.55-1.12-.98h-.03Zm5.03-2.23c0-.38-.06-.73-.17-1.06-.12-.33-.28-.62-.5-.86-.22-.25-.48-.44-.8-.58-.32-.14-.68-.22-1.08-.22-.37,0-.72,.07-1.04,.21-.32,.14-.59,.33-.82,.58s-.41,.53-.54,.87c-.13,.33-.19,.69-.19,1.07s.06,.74,.19,1.07c.13,.33,.31,.62,.54,.86s.5,.43,.82,.57c.32,.14,.66,.21,1.04,.21,.4,0,.76-.07,1.08-.21,.32-.14,.58-.33,.8-.58,.22-.25,.38-.53,.5-.87,.12-.33,.17-.68,.17-1.06Z" />
          <path class="cls-10"
            d="M82.51,189.88h.03l2.09-5.69h1.07l-3.36,8.49c-.2,.52-.46,.93-.77,1.25-.31,.31-.76,.47-1.35,.47-.3,0-.59-.03-.88-.09l.1-.89c.23,.08,.47,.12,.72,.12,.34,0,.6-.1,.79-.31,.19-.21,.36-.5,.5-.89l.55-1.41-2.88-6.73h1.1l2.29,5.69Z" />
        </g>
        <g>
          <g>
            <path class="cls-11"
              d="M139.99,184.32c0,.45,0,.88,0,1.3,0,1.08,0,2.15,0,3.23,0,.13-.04,.23-.13,.33-.65,.71-1.42,1.25-2.33,1.57-.5,.18-1.03,.27-1.56,.3-.82,.04-1.64,0-2.44-.21-1.93-.5-3.2-1.69-3.74-3.6-.48-1.7-.35-3.37,.45-4.95,.79-1.57,2.09-2.51,3.81-2.85,.49-.1,1.01-.15,1.51-.14,1.5,.02,2.82,.53,3.93,1.54,.05,.05,.11,.09,.16,.14,0,0,.01,.02,.04,.07-.45,.42-.91,.85-1.35,1.27-.29-.18-.61-.42-.96-.6-.62-.33-1.29-.48-1.99-.46-.99,.03-1.88,.33-2.6,1.05-.56,.55-.9,1.23-1.05,2-.18,.87-.16,1.73,.15,2.56,.38,.99,1.06,1.66,2.07,1.98,1.04,.33,2.08,.36,3.09-.08,.31-.14,.59-.35,.88-.53,.04-.02,.07-.08,.07-.12,0-.62,0-1.24,0-1.87h-2.85v-1.91h4.82Z" />
            <path class="cls-11"
              d="M150.93,184.32v-4.68h2.13v11.16h-2.12v-4.49h-5.49v4.49h-2.14v-11.16h2.13v4.69h5.49Z" />
            <path class="cls-11"
              d="M111.42,188.33c.6-.31,1.19-.61,1.74-.89,.25,.32,.45,.64,.71,.89,.46,.45,1.04,.67,1.67,.78,.76,.13,1.51,.1,2.25-.14,.57-.19,1.02-.52,1.15-1.15,.12-.58-.14-1.13-.67-1.41-.53-.28-1.11-.4-1.69-.47-.84-.11-1.68-.21-2.48-.5-.69-.25-1.3-.6-1.71-1.22-.27-.41-.39-.86-.44-1.35-.05-.52,0-1.02,.2-1.51,.33-.8,.95-1.3,1.72-1.64,1-.44,2.05-.54,3.12-.46,.68,.05,1.35,.18,1.97,.48,.78,.37,1.38,.92,1.77,1.73-.56,.29-1.13,.58-1.7,.88-.25-.38-.59-.65-.99-.84-.49-.24-1.01-.38-1.56-.4-.55-.02-1.1,.03-1.6,.27-.48,.22-.82,.57-.83,1.13-.01,.52,.24,.86,.77,1.07,.56,.23,1.16,.3,1.75,.38,.88,.12,1.76,.24,2.58,.6,1.26,.54,1.89,1.45,1.93,2.83,.02,.69-.11,1.35-.49,1.94-.46,.7-1.12,1.12-1.89,1.4-.95,.34-1.93,.4-2.92,.35-.71-.03-1.4-.15-2.06-.42-.92-.37-1.61-.99-2.07-1.87-.08-.15-.15-.3-.22-.46Z" />
            <path class="cls-11"
              d="M172.31,187.53v3.27h-2.15v-11.21c.07,0,.13,0,.2,0,1.65,0,3.31,0,4.96,0,.95,0,1.86,.17,2.65,.74,.99,.71,1.49,1.7,1.6,2.91,.07,.81-.09,1.58-.47,2.29-.57,1.04-1.46,1.67-2.62,1.89-.41,.08-.85,.1-1.27,.11-.89,.02-1.78,0-2.67,0h-.22Zm.01-1.97s.06,0,.09,0c1.04,0,2.09,0,3.13,0,.19,0,.38-.04,.56-.1,.97-.3,1.49-1.18,1.32-2.2-.16-.98-.92-1.61-1.91-1.63-1-.01-2,0-3.01,0-.06,0-.12,0-.19,0v3.92Z" />
            <path class="cls-11"
              d="M164.37,179.63h2.11v.17c0,2.21,.02,4.41,0,6.62-.01,1.14-.34,2.21-1.11,3.1-.67,.78-1.53,1.21-2.52,1.41-.55,.11-1.1,.14-1.66,.1-1.24-.09-2.35-.48-3.24-1.38-.67-.67-1.06-1.49-1.21-2.42-.08-.5-.1-1.01-.11-1.51-.01-1.95,0-3.91,0-5.86,0-.07,0-.14,0-.22h2.12c0,.07,0,.15,0,.22,0,2.07,0,4.13,0,6.2,0,.56,.09,1.1,.34,1.61,.29,.6,.75,1.02,1.38,1.24,.79,.27,1.59,.29,2.37-.04,.64-.27,1.03-.76,1.28-1.39,.17-.45,.24-.91,.24-1.39,0-2.08,0-4.15,0-6.23v-.22Z" />
            <path class="cls-11" d="M126.41,179.6v11.19h-2.1v-11.19h2.1Z" />
          </g>
          <g>
            <polygon class="cls-11"
              points="96.05 183.51 101.09 183.51 101.09 181.79 94.35 181.79 94.35 182.12 94.35 183.51 94.35 186.83 94.34 186.83 94.34 188.55 104.42 188.55 104.42 189.35 94.34 189.35 94.34 191.06 106.13 191.06 106.13 190.82 106.13 189.35 106.13 188.55 106.13 187.84 106.13 186.83 96.05 186.83 96.05 183.51" />
            <g>
              <rect class="cls-11" x="104.42" y="181.79" width="1.71" height="1.72" />
              <polygon class="cls-11"
                points="104.42 184.31 104.42 184.31 103.61 184.31 103.61 181 106.13 181 106.13 179.28 94.35 179.28 94.35 181 101.9 181 101.9 184.31 96.87 184.31 96.87 186.03 106.13 186.03 106.13 184.76 106.13 184.76 106.13 184.31 104.42 184.31" />
            </g>
          </g>
        </g>
      </g>
    </g>
  </g>
</svg>
